<?xml version="1.0" encoding="UTF-8" standalone="no"?>
<!-- Created with Inkscape (http://www.inkscape.org/) -->

<svg
   width="210mm"
   height="297mm"
   viewBox="0 0 210 297"
   version="1.1"
   id="svg5"
   xml:space="preserve"
   sodipodi:docname="favlogo.svg"
   inkscape:version="1.2 (dc2aeda, 2022-05-15)"
   inkscape:export-filename="favlogo.png"
   inkscape:export-xdpi="96"
   inkscape:export-ydpi="96"
   xmlns:inkscape="http://www.inkscape.org/namespaces/inkscape"
   xmlns:sodipodi="http://sodipodi.sourceforge.net/DTD/sodipodi-0.dtd"
   xmlns="http://www.w3.org/2000/svg"
   xmlns:svg="http://www.w3.org/2000/svg"><sodipodi:namedview
     id="namedview7"
     pagecolor="#ffffff"
     bordercolor="#000000"
     borderopacity="0.25"
     inkscape:showpageshadow="2"
     inkscape:pageopacity="0.0"
     inkscape:pagecheckerboard="0"
     inkscape:deskcolor="#d1d1d1"
     inkscape:document-units="mm"
     showgrid="false"
     inkscape:zoom="0.4204826"
     inkscape:cx="-769.35407"
     inkscape:cy="569.58362"
     inkscape:window-width="2560"
     inkscape:window-height="1027"
     inkscape:window-x="0"
     inkscape:window-y="25"
     inkscape:window-maximized="1"
     inkscape:current-layer="layer1" /><defs
     id="defs2"><inkscape:path-effect
       effect="powerclip"
       id="path-effect1116"
       is_visible="true"
       lpeversion="1"
       inverse="true"
       flatten="false"
       hide_clip="false"
       message="Use fill-rule evenodd on &lt;b&gt;fill and stroke&lt;/b&gt; dialog if no flatten result after convert clip to paths." /><inkscape:path-effect
       effect="powerclip"
       id="path-effect499"
       is_visible="true"
       lpeversion="1"
       inverse="true"
       flatten="false"
       hide_clip="false"
       message="Use fill-rule evenodd on &lt;b&gt;fill and stroke&lt;/b&gt; dialog if no flatten result after convert clip to paths." /><clipPath
       clipPathUnits="userSpaceOnUse"
       id="clipPath5154"><rect
         style="fill:#000000;stroke:#f0f7ef;stroke-width:11.3386"
         id="rect5156"
         width="791.94714"
         height="720.60059"
         x="0"
         y="192.63579" /></clipPath><clipPath
       clipPathUnits="userSpaceOnUse"
       id="clipPath5158"><rect
         style="fill:#000000;stroke:#f0f7ef;stroke-width:11.3386"
         id="rect5160"
         width="791.94714"
         height="720.60059"
         x="0"
         y="192.63579" /></clipPath><clipPath
       clipPathUnits="userSpaceOnUse"
       id="clipPath5162"><rect
         style="fill:#000000;stroke:#f0f7ef;stroke-width:3"
         id="rect5164"
         width="209.53601"
         height="190.65891"
         x="0"
         y="50.96822" /></clipPath><clipPath
       clipPathUnits="userSpaceOnUse"
       id="clipPath495"><ellipse
         style="font-variation-settings:'opsz' 32, 'wght' 600;display:none;fill:#00ffff;stroke:#f0f7ef;stroke-width:0"
         id="ellipse497"
         cx="-511.56992"
         cy="68.586861"
         rx="124.58899"
         ry="65.440681"
         d="M -386.98093,68.586861 A 124.58899,65.440681 0 0 1 -511.56992,134.02754 124.58899,65.440681 0 0 1 -636.15891,68.586861 124.58899,65.440681 0 0 1 -511.56992,3.1461792 124.58899,65.440681 0 0 1 -386.98093,68.586861 Z" /><path
         id="lpe_path-effect499"
         style="font-variation-settings:'opsz' 32, 'wght' 600;fill:#00ffff;stroke:#f0f7ef;stroke-width:0"
         class="powerclip"
         d="m -636.75417,-28.281785 h 249.11015 V 126.4428 h -249.11015 z m 249.77324,96.868646 A 124.58899,65.440681 0 0 0 -511.56992,3.1461792 124.58899,65.440681 0 0 0 -636.15891,68.586861 124.58899,65.440681 0 0 0 -511.56992,134.02754 124.58899,65.440681 0 0 0 -386.98093,68.586861 Z" /></clipPath><clipPath
       clipPathUnits="userSpaceOnUse"
       id="clipath_lpe_path-effect1116"><ellipse
         style="font-variation-settings:'opsz' 32, 'wght' 600;display:none;fill:#00ffff;stroke:#f0f7ef;stroke-width:0"
         id="ellipse1118"
         cx="-511.56992"
         cy="68.586861"
         rx="124.58899"
         ry="65.440681"
         d="M -386.98093,68.586861 A 124.58899,65.440681 0 0 1 -511.56992,134.02754 124.58899,65.440681 0 0 1 -636.15891,68.586861 124.58899,65.440681 0 0 1 -511.56992,3.1461792 124.58899,65.440681 0 0 1 -386.98093,68.586861 Z" /><path
         id="lpe_path-effect1116"
         style="font-variation-settings:'opsz' 32, 'wght' 600;fill:#00ffff;stroke:#f0f7ef;stroke-width:0"
         class="powerclip"
         d="m -636.75417,-28.281785 h 249.11015 V 126.4428 h -249.11015 z m 249.77324,96.868646 A 124.58899,65.440681 0 0 0 -511.56992,3.1461792 124.58899,65.440681 0 0 0 -636.15891,68.586861 124.58899,65.440681 0 0 0 -511.56992,134.02754 124.58899,65.440681 0 0 0 -386.98093,68.586861 Z" /></clipPath></defs><g
     inkscape:label="Layer 1"
     inkscape:groupmode="layer"
     id="layer1"><ellipse
       style="fill:#ffffff;fill-opacity:1;stroke:#f0f7ef;stroke-width:3"
       id="path5458"
       cx="108.22881"
       cy="146.61229"
       rx="145.98305"
       ry="155.42162" /><text
       xml:space="preserve"
       style="font-size:234.95px;font-family:'Gill Sans';-inkscape-font-specification:'Gill Sans';fill:#000000;fill-opacity:1;stroke:#f0f7ef;stroke-width:0;stroke-dasharray:none"
       x="65.440681"
       y="125.84746"
       id="text5710"><tspan
         sodipodi:role="line"
         id="tspan5708"
         style="font-size:234.95px;stroke-width:0"
         x="65.440681"
         y="125.84746" /></text><text
       xml:space="preserve"
       style="font-size:312.695px;font-family:'Gill Sans';-inkscape-font-specification:'Gill Sans';fill:#000000;stroke:#f0f7ef;stroke-width:0"
       x="26.954826"
       y="227.76778"
       id="text303"><tspan
         sodipodi:role="line"
         id="tspan301"
         x="26.954826"
         y="227.76778"
         style="font-style:normal;font-variant:normal;font-weight:normal;font-stretch:normal;font-size:312.695px;font-family:'Inter Variable';-inkscape-font-specification:'Inter Variable, @opsz=32.0,wght=600';font-variant-ligatures:normal;font-variant-caps:normal;font-variant-numeric:normal;font-variant-east-asian:normal;font-variation-settings:'opsz' 32, 'wght' 600;stroke-width:0">a</tspan></text><path
       style="font-variation-settings:'opsz' 32, 'wght' 600;fill:#911c7d;fill-opacity:1;stroke:#f0f7ef;stroke-width:0"
       id="path476"
       clip-path="url(#clipPath495)"
       inkscape:path-effect="#path-effect499"
       sodipodi:type="arc"
       sodipodi:cx="-512.1991"
       sodipodi:cy="49.080505"
       sodipodi:rx="119.55508"
       sodipodi:ry="72.362289"
       d="M -392.64402,49.080505 A 119.55508,72.362289 0 0 1 -512.1991,121.44279 119.55508,72.362289 0 0 1 -631.75417,49.080505 119.55508,72.362289 0 0 1 -512.1991,-23.281784 119.55508,72.362289 0 0 1 -392.64402,49.080505 Z"
       transform="matrix(1.1383771,0.73522772,-0.77399531,1.0813585,733.06807,429.22121)" /><path
       style="font-variation-settings:'opsz' 32, 'wght' 600;fill:#002b8d;fill-opacity:1;stroke:#f0f7ef;stroke-width:0"
       id="path1112"
       clip-path="url(#clipath_lpe_path-effect1116)"
       inkscape:path-effect="#path-effect1116"
       sodipodi:type="arc"
       sodipodi:cx="-512.1991"
       sodipodi:cy="49.080505"
       sodipodi:rx="119.55508"
       sodipodi:ry="72.362289"
       d="M -392.64402,49.080505 A 119.55508,72.362289 0 0 1 -512.1991,121.44279 119.55508,72.362289 0 0 1 -631.75417,49.080505 119.55508,72.362289 0 0 1 -512.1991,-23.281784 119.55508,72.362289 0 0 1 -392.64402,49.080505 Z"
       transform="matrix(-1.3410469,0.31185926,-0.12821327,-2.1177029,-574.24907,415.31814)" /></g></svg>
